<?xml version="1.0" encoding="UTF-8" standalone="no"?>
<svg
   enable-background="new 0 0 50 50"
   height="50px"
   id="Capa_1"
   version="1.1"
   viewBox="0 0 50 50"
   width="50px"
   xml:space="preserve"
   sodipodi:docname="icon2.svg"
   inkscape:version="1.4.2 (ebf0e940, 2025-05-08)"
   xmlns:inkscape="http://www.inkscape.org/namespaces/inkscape"
   xmlns:sodipodi="http://sodipodi.sourceforge.net/DTD/sodipodi-0.dtd"
   xmlns="http://www.w3.org/2000/svg"
   xmlns:svg="http://www.w3.org/2000/svg"><defs
   id="defs1"><rect
     x="18.99775"
     y="32.247773"
     width="35.212391"
     height="41.383634"
     id="rect2" /></defs><sodipodi:namedview
   id="namedview1"
   pagecolor="#ffffff"
   bordercolor="#000000"
   borderopacity="0.25"
   inkscape:showpageshadow="2"
   inkscape:pageopacity="0.0"
   inkscape:pagecheckerboard="0"
   inkscape:deskcolor="#d1d1d1"
   inkscape:zoom="10.313666"
   inkscape:cx="33.499242"
   inkscape:cy="48.867201"
   inkscape:window-width="1792"
   inkscape:window-height="1249"
   inkscape:window-x="1775"
   inkscape:window-y="25"
   inkscape:window-maximized="0"
   inkscape:current-layer="g3" />
   <rect
   style="fill:#b73838;fill-opacity:1;stroke-width:2.79208;-inkscape-stroke:none"
   id="rect1"
   width="50"
   height="50"
   x="0"
   y="-50"
   transform="scale(1,-1)"
   inkscape:label="bg"
   rx="8" /><g
   style="fill:#ffffff"
   id="g7"
   transform="matrix(0.07988238,0,0,0.07988238,9.2870203,10.580116)"
   inkscape:label="cup"><g
     id="g4"
     style="fill:#ffffff">
	<path
   d="m 161.37956,107.37173 c 1.37222,0.93316 2.98343,1.42727 4.6591,1.42727 h 0.0201 c 4.57853,0 8.30312,-3.72191 8.30312,-8.2991 0,-0.792181 -0.11144,-1.574963 -0.32895,-2.329548 C 169.31211,77.49175 171.54633,60.8385 180.6752,48.675169 191.469,34.296418 196.24894,15.843978 193.46153,-0.68037427 191.0004,-15.330347 183.12559,-27.505761 170.70044,-35.881394 c -2.77398,-1.882436 -6.59927,-1.86901 -9.36653,0.03491 -2.82903,1.945542 -4.15425,5.369374 -3.3755,8.73547 5.0995,21.7567735 0.46054,35.5447459 -11.17109,56.470401 -7.25986,13.06024 -10.22584,27.72901 -8.35012,41.308867 2.12546,15.36025 10.07009,28.05931 22.94236,36.703476 z"
   id="path1-7"
   style="display:none;fill:#ffffff;stroke-width:1.34268" />
	<path
   d="m 228.74849,103.86063 c 1.29971,0.88482 2.81694,1.35342 4.38787,1.35342 h 0.009 c 4.31134,0 7.81842,-3.50708 7.81842,-7.818424 0,-0.730418 -0.10204,-1.455464 -0.30479,-2.157686 -3.57824,-15.733514 -1.9066,-28.353356 4.96926,-37.515798 8.64417,-11.513474 12.4708,-26.305771 10.23658,-39.564728 -1.98448,-11.8048348 -8.33132,-21.6198195 -18.35308,-28.381552 -2.60479,-1.75891 -6.13201,-1.780392 -8.82946,0.05371 -2.63299,1.8273867 -3.89376,5.1451469 -3.14992,8.2077981 3.88437,16.5673179 0.32224,27.1154059 -8.59583,43.1550509 -5.81112,10.452758 -8.18229,22.205228 -6.67446,33.088986 1.70923,12.380845 8.11381,22.617431 18.48601,29.579223 z"
   id="path2-3"
   style="display:none;fill:#ffffff;stroke-width:1.34268" />
	<path
   d="m 320.6,96.502937 -6.604,-25.205003 c -1.864,-7.115 -9.087,-12.69 -16.443,-12.69 H 96.83 c -7.356,0 -14.579,5.575 -16.443,12.69 l -6.604,25.205003 c -0.969,3.697003 -0.31,7.392003 1.808,10.136003 2.118,2.744 5.524,4.318 9.345,4.318 h 4.689 l 17.839,197.022 c 1.022,11.294 11.081,20.483 22.422,20.483 h 134.611 c 11.341,0 21.399,-9.189 22.422,-20.483 l 17.839,-197.022 h 4.689 c 3.821,0 7.228,-1.574 9.345,-4.318 2.117,-2.744 2.777,-6.438 1.808,-10.136003 z"
   id="path3-1"
   style="fill:#ffffff"
   sodipodi:nodetypes="ccssccssccssccssc" />
	
</g></g><g
   id="g3"
   transform="matrix(-0.01911372,0.00643653,0.0066689,0.02196183,47.342967,-6.8675094)"
   inkscape:label="tail"
   style="fill:#ffffff"><path
     id="path7"
     d="m 5559.37,6153.6 c 0,0 0,0 -347.25,493.8 0,0 -299.3,-747.1 -114.96,-1616.1 0,0 445.57,632.4 1118.35,914.2 l -656.14,208.1"
     style="fill:#ffffff;fill-opacity:1;fill-rule:nonzero;stroke:none"
     transform="matrix(0.13333333,0,0,-0.13333333,0,2666.6667)" /><path
     id="path8"
     d="M 14605.3,9095.4 C 14542.9,8208.7 13388.6,5818.7 9797.95,6612.8 8401.47,6921.6 7499.47,7286.2 6418.6,6888.7 5956.46,6718.8 5304.13,6108.8 5138.14,5632.5 c 45.85,-15.7 91.69,-31.4 137.53,-47.1 8.95,-3.1 42.36,-21.1 50.84,-17.4 12.25,5.2 33.2,75.5 40.58,90 41.52,81.4 91.27,159 155.86,223.7 905.65,907 1655.65,1067 3765.65,257 1597.3,-613.1 3478.3,-853.6 4513.7,-4.7 370.2,303.5 675.8,744.7 819.6,1241.4 187.9,648.7 138.2,1365.1 -16.6,1720"
     style="fill:#ffffff;fill-opacity:1;fill-rule:nonzero;stroke:none"
     transform="matrix(0.13333333,0,0,-0.13333333,0,2666.6667)" /></g><path
   id="path2-4"
   d="m 4.6418648,3.4010389 c 0,0 -5.16618194,10.1201021 3.1846341,19.7447231 0,0 1.0615465,0.849337 2.0169335,-0.424602 0,0 2.5123576,-3.644621 2.5831036,-6.510785 0,0 0.141491,-0.990825 -0.601531,-1.344683 0,0 -6.776218,-3.96304 -6.6169823,-11.4646531 0,0 0.053074,-0.2536019 -0.2241053,-0.2831121 0,0 -0.1811968,-0.065866 -0.3420526,0.2831121"
   style="display:inline;fill:#ffffff;fill-opacity:1;fill-rule:nonzero;stroke:none;stroke-width:0.00131742"
   inkscape:label="horn-l" /><path
   id="path3-9"
   d="m 45.358181,3.4010389 c 0,0 5.166102,10.1201021 -3.184714,19.7447231 0,0 -1.061571,0.849337 -2.016957,-0.424602 0,0 -2.512309,-3.644621 -2.583053,-6.510785 0,0 -0.14149,-0.990825 0.60153,-1.344683 0,0 6.776245,-3.96304 6.616971,-11.4646531 0,0 -0.05308,-0.2536019 0.224091,-0.2831121 0,0 0.181275,-0.065866 0.342132,0.2831121"
   style="fill:#ffffff;fill-opacity:1;fill-rule:nonzero;stroke:none;stroke-width:0.00131742"
   inkscape:label="horn-r" /></svg>
