<?xml version="1.0" encoding="UTF-8" standalone="no"?>
<svg
   enable-background="new 0 0 50 50"
   height="50px"
   id="Capa_1"
   version="1.1"
   viewBox="0 0 50 50"
   width="50px"
   xml:space="preserve"
   sodipodi:docname="icon3.svg"
   inkscape:version="1.4.2 (ebf0e940, 2025-05-08)"
   xmlns:inkscape="http://www.inkscape.org/namespaces/inkscape"
   xmlns:sodipodi="http://sodipodi.sourceforge.net/DTD/sodipodi-0.dtd"
   xmlns="http://www.w3.org/2000/svg"
   xmlns:svg="http://www.w3.org/2000/svg"><defs
   id="defs1"><rect
     x="18.99775"
     y="32.247773"
     width="35.212391"
     height="41.383634"
     id="rect2" /></defs><sodipodi:namedview
   id="namedview1"
   pagecolor="#ffffff"
   bordercolor="#000000"
   borderopacity="0.25"
   inkscape:showpageshadow="2"
   inkscape:pageopacity="0.0"
   inkscape:pagecheckerboard="0"
   inkscape:deskcolor="#d1d1d1"
   inkscape:zoom="10.313666"
   inkscape:cx="106.94548"
   inkscape:cy="40.140916"
   inkscape:window-width="3008"
   inkscape:window-height="1639"
   inkscape:window-x="0"
   inkscape:window-y="25"
   inkscape:window-maximized="1"
   inkscape:current-layer="Capa_1" />
   <rect
   style="fill:#b73838;fill-opacity:1;stroke-width:2.79208;-inkscape-stroke:none"
   id="rect1"
   width="50"
   height="50"
   x="0"
   y="-50"
   transform="scale(1,-1)"
   inkscape:label="bg"
   rx="6" /><g
   id="g3"
   transform="matrix(-0.02137595,0.00550645,0.00745821,0.01878833,47.305107,0.39837772)"
   inkscape:label="tail"
   style="fill:#ffffff"><path
     id="path7"
     d="m 5559.37,6153.6 c 0,0 0,0 -347.25,493.8 0,0 -299.3,-747.1 -114.96,-1616.1 0,0 445.57,632.4 1118.35,914.2 l -656.14,208.1"
     style="fill:#ffffff;fill-opacity:1;fill-rule:nonzero;stroke:none"
     transform="matrix(0.13333333,0,0,-0.13333333,0,2666.6667)" /><path
     id="path8"
     d="M 14605.3,9095.4 C 14542.9,8208.7 13388.6,5818.7 9797.95,6612.8 8401.47,6921.6 7499.47,7286.2 6418.6,6888.7 5956.46,6718.8 5304.13,6108.8 5138.14,5632.5 c 45.85,-15.7 91.69,-31.4 137.53,-47.1 8.95,-3.1 42.36,-21.1 50.84,-17.4 12.25,5.2 33.2,75.5 40.58,90 41.52,81.4 91.27,159 155.86,223.7 905.65,907 1655.65,1067 3765.65,257 1597.3,-613.1 3478.3,-853.6 4513.7,-4.7 370.2,303.5 675.8,744.7 819.6,1241.4 187.9,648.7 138.2,1365.1 -16.6,1720"
     style="fill:#ffffff;fill-opacity:1;fill-rule:nonzero;stroke:none"
     transform="matrix(0.13333333,0,0,-0.13333333,0,2666.6667)" /></g><path
   id="path2-4"
   d="m 4.0839295,2.3571929 c 0,0 -3.83438584,7.5112287 2.3636639,14.6547071 0,0 0.787889,0.630385 1.496986,-0.315143 0,0 1.864694,-2.70507 1.917202,-4.832363 0,0 0.105016,-0.735399 -0.446462,-0.998035 0,0 -5.029369,-2.9414031 -4.911182,-8.5091661 0,0 0.03939,-0.188226 -0.166333,-0.210128 0,0 -0.134486,-0.04889 -0.2538749,0.210128"
   style="display:inline;fill:#ffffff;fill-opacity:1;fill-rule:nonzero;stroke:none;stroke-width:0.000977801"
   inkscape:label="horn-l" /><path
   id="path3-9"
   d="m 45.916104,2.3571929 c 0,0 3.834326,7.5112287 -2.363723,14.6547071 0,0 -0.787907,0.630385 -1.497003,-0.315143 0,0 -1.864658,-2.70507 -1.917165,-4.832363 0,0 -0.105015,-0.735399 0.446461,-0.998035 0,0 5.029389,-2.9414031 4.911174,-8.5091661 0,0 -0.0394,-0.188226 0.166322,-0.210128 0,0 0.134544,-0.04889 0.253934,0.210128"
   style="fill:#ffffff;fill-opacity:1;fill-rule:nonzero;stroke:none;stroke-width:0.000977801"
   inkscape:label="horn-r" /><g
   id="text2"
   style="font-weight:900;font-size:6.66667px;font-family:Poppins;-inkscape-font-specification:'Poppins Heavy';text-align:center;letter-spacing:0.25px;text-anchor:middle;fill:#ffffff"
   aria-label="Čertovský&#10;svařák"><path
     d="m 5.9448409,22.648684 q 0,-0.7 0.2800001,-1.246667 0.2866668,-0.546667 0.8133337,-0.846667 0.5266669,-0.306667 1.2400006,-0.306667 0.6133336,0 1.0933339,0.233334 0.4866669,0.226667 0.7866668,0.646667 0.306667,0.42 0.406667,0.98 H 9.0048423 q -0.1066667,-0.233333 -0.3066668,-0.36 -0.1933334,-0.133333 -0.4466669,-0.133333 -0.3733335,0 -0.5933336,0.28 -0.2133334,0.28 -0.2133334,0.753333 0,0.473334 0.2133334,0.753334 0.2200001,0.28 0.5933336,0.28 0.2533335,0 0.4466669,-0.126666 0.2000001,-0.133334 0.3066668,-0.366667 h 1.5600007 q -0.1,0.56 -0.406667,0.98 -0.2999999,0.42 -0.7866668,0.653334 -0.4800003,0.226667 -1.0933339,0.226667 -0.7133337,0 -1.2400006,-0.300001 Q 6.5115078,24.442019 6.224841,23.895352 5.9448409,23.348685 5.9448409,22.648684 Z M 9.3581758,19.522016 8.2581753,20.022017 7.1515081,19.522016 v -0.96 l 1.1066672,0.586667 1.1000005,-0.586667 z m 5.6300042,3.580002 q 0,0.153333 -0.02,0.293333 h -2.380001 q 0.03333,0.486667 0.406667,0.486667 0.24,0 0.346667,-0.22 h 1.566667 q -0.08,0.4 -0.34,0.720001 -0.253333,0.313333 -0.646667,0.5 -0.386667,0.18 -0.853334,0.18 -0.56,0 -1,-0.233334 -0.433334,-0.233333 -0.68,-0.666666 -0.240001,-0.440001 -0.240001,-1.026668 0,-0.586667 0.240001,-1.02 0.246666,-0.44 0.68,-0.673334 0.44,-0.233333 1,-0.233333 0.560001,0 0.993334,0.233333 0.44,0.226667 0.68,0.653334 0.246667,0.426667 0.246667,1.006667 z m -1.5,-0.353333 q 0,-0.186667 -0.120001,-0.280001 -0.12,-0.1 -0.3,-0.1 -0.393333,0 -0.46,0.380001 z m 3.696662,-0.800001 q 0.226667,-0.326667 0.553334,-0.52 0.326666,-0.2 0.68,-0.2 v 1.580001 h -0.42 q -0.42,0 -0.620001,0.146666 -0.193333,0.146667 -0.193333,0.520001 v 1.54 H 15.704841 V 21.25535 h 1.480001 z m 4.223343,1.806668 v 1.26 h -0.560001 q -1.546667,0 -1.546667,-1.54 V 22.488684 H 18.83485 V 21.25535 h 0.466667 v -0.906667 h 1.480001 v 0.906667 h 0.613333 v 1.233334 h -0.613333 v 1.013334 q 0,0.133334 0.06,0.193334 0.06667,0.06 0.213333,0.06 z m 2.60334,1.306667 q -0.566667,0 -1.020001,-0.233334 -0.453334,-0.233333 -0.713334,-0.666666 -0.253333,-0.440001 -0.253333,-1.026668 0,-0.586667 0.253333,-1.02 0.26,-0.44 0.713334,-0.673334 0.453334,-0.233333 1.020001,-0.233333 0.566666,0 1.02,0.233333 0.453334,0.233334 0.706667,0.673334 0.26,0.433333 0.26,1.02 0,0.586667 -0.26,1.026668 -0.253333,0.433333 -0.706667,0.666666 -0.453334,0.233334 -1.02,0.233334 z m 0,-1.280001 q 0.206666,0 0.346666,-0.16 0.14,-0.166666 0.14,-0.486667 0,-0.32 -0.14,-0.48 -0.14,-0.166667 -0.346666,-0.166667 -0.206667,0 -0.346667,0.166667 -0.14,0.16 -0.14,0.48 0,0.320001 0.133333,0.486667 0.14,0.16 0.353334,0.16 z m 4.609999,-0.173333 0.600001,-2.353335 h 1.573334 l -1.253334,3.760002 H 27.694857 L 26.441523,21.25535 h 1.573334 z m 4.489998,1.453334 q -0.533333,0 -0.946667,-0.173333 -0.406667,-0.173334 -0.646667,-0.480001 -0.24,-0.306667 -0.273333,-0.693333 h 1.42 q 0.02667,0.166666 0.140001,0.246666 0.12,0.08 0.3,0.08 0.113333,0 0.18,-0.04667 0.06667,-0.05333 0.06667,-0.126667 0,-0.126667 -0.14,-0.18 -0.14,-0.05333 -0.473333,-0.12 -0.406667,-0.08 -0.673334,-0.173334 -0.26,-0.09333 -0.46,-0.32 -0.193333,-0.226666 -0.193333,-0.626667 0,-0.346666 0.18,-0.626667 0.186666,-0.286666 0.546667,-0.446666 0.36,-0.166667 0.873333,-0.166667 0.760001,0 1.186668,0.373333 0.433333,0.373334 0.52,0.973334 h -1.313334 q -0.03333,-0.153333 -0.14,-0.233333 -0.106667,-0.08667 -0.286667,-0.08667 -0.113333,0 -0.173333,0.04667 -0.06,0.04 -0.06,0.126666 0,0.113334 0.14,0.173334 0.14,0.05333 0.446666,0.113333 0.406667,0.08 0.686667,0.18 0.280001,0.1 0.486667,0.346667 0.206667,0.24 0.206667,0.666667 0,0.333334 -0.193333,0.6 -0.193334,0.266667 -0.560001,0.420001 -0.36,0.153333 -0.846667,0.153333 z m 4.84334,-0.04667 -0.926667,-1.5 v 1.5 h -1.48 v -4.933335 h 1.48 v 2.580001 l 0.940001,-1.406668 h 1.720001 l -1.406668,1.893335 1.440001,1.866667 z m 6.596673,-3.760002 -2.406668,5.560003 h -1.62 l 0.946667,-1.986668 -1.566668,-3.573335 h 1.646668 l 0.706667,1.906668 0.66,-1.906668 z m -1.466667,-0.88 -1.726668,0.626667 V 20.01535 l 1.726668,-0.733334 z"
     id="path48" /><path
     d="m 14.111509,33.395356 q -0.533333,0 -0.946667,-0.173333 -0.406667,-0.173334 -0.646667,-0.48 -0.24,-0.306667 -0.273333,-0.693334 h 1.42 q 0.02667,0.166667 0.14,0.246667 0.12,0.08 0.300001,0.08 0.113333,0 0.18,-0.04667 0.06667,-0.05333 0.06667,-0.126667 0,-0.126666 -0.14,-0.18 -0.14,-0.05333 -0.473333,-0.12 -0.406667,-0.08 -0.673334,-0.173333 -0.26,-0.09333 -0.46,-0.32 -0.193334,-0.226667 -0.193334,-0.626667 0,-0.346667 0.180001,-0.626667 0.186666,-0.286667 0.546666,-0.446667 0.360001,-0.166667 0.873334,-0.166667 0.760001,0 1.186667,0.373334 0.433334,0.373333 0.520001,0.973333 h -1.313334 q -0.03333,-0.153333 -0.14,-0.233333 -0.106667,-0.08667 -0.286667,-0.08667 -0.113334,0 -0.173334,0.04667 -0.06,0.04 -0.06,0.126667 0,0.113333 0.14,0.173333 0.140001,0.05333 0.446667,0.113333 0.406667,0.08 0.686667,0.180001 0.28,0.1 0.486667,0.346666 0.206667,0.24 0.206667,0.666667 0,0.333334 -0.193333,0.600001 -0.193334,0.266666 -0.560001,0.42 -0.36,0.153333 -0.846667,0.153333 z m 4.343339,-1.453334 0.6,-2.353334 h 1.573334 L 19.374848,33.34869 H 17.52818 l -1.253333,-3.760002 h 1.573334 z m 2.616665,-0.473333 q 0,-0.593334 0.2,-1.026667 0.206667,-0.440001 0.56,-0.666667 0.353334,-0.233334 0.793334,-0.233334 0.366667,0 0.633334,0.153333 0.266666,0.146667 0.406666,0.406667 v -0.513333 h 1.473334 v 3.760002 h -1.473334 v -0.513334 q -0.14,0.26 -0.406666,0.413334 -0.266667,0.146666 -0.633334,0.146666 -0.44,0 -0.793334,-0.226667 -0.353333,-0.233333 -0.56,-0.666667 -0.2,-0.44 -0.2,-1.033333 z m 2.593334,0 q 0,-0.3 -0.153333,-0.466667 -0.153333,-0.166667 -0.393334,-0.166667 -0.24,0 -0.393333,0.166667 -0.153333,0.166667 -0.153333,0.466667 0,0.3 0.153333,0.466667 0.153333,0.166666 0.393333,0.166666 0.240001,0 0.393334,-0.166666 0.153333,-0.166667 0.153333,-0.466667 z m 3.870003,-1.186668 q 0.226667,-0.326666 0.553334,-0.52 0.326667,-0.2 0.68,-0.2 v 1.580001 h -0.42 q -0.42,0 -0.62,0.146667 -0.193334,0.146666 -0.193334,0.52 v 1.540001 h -1.48 v -3.760002 h 1.48 z m 1.120001,-1.446667 -1.100001,0.5 -1.106667,-0.5 v -0.96 l 1.106667,0.586667 1.100001,-0.586667 z m 0.563341,2.633335 q 0,-0.593334 0.2,-1.026667 0.206667,-0.440001 0.56,-0.666667 0.353334,-0.233334 0.793334,-0.233334 0.366667,0 0.633333,0.153333 0.266667,0.146667 0.406667,0.406667 v -0.513333 h 1.473334 v 3.760002 h -1.473334 v -0.513334 q -0.14,0.26 -0.406667,0.413334 -0.266666,0.146666 -0.633333,0.146666 -0.44,0 -0.793334,-0.226667 -0.353333,-0.233333 -0.56,-0.666667 -0.2,-0.44 -0.2,-1.033333 z m 2.593334,0 q 0,-0.3 -0.153333,-0.466667 -0.153334,-0.166667 -0.393334,-0.166667 -0.24,0 -0.393333,0.166667 -0.153334,0.166667 -0.153334,0.466667 0,0.3 0.153334,0.466667 0.153333,0.166666 0.393333,0.166666 0.24,0 0.393334,-0.166666 0.153333,-0.166667 0.153333,-0.466667 z m 0.440001,-2.760002 -1.726668,0.626667 v -0.986667 l 1.726668,-0.733334 z m 4.356669,4.640003 -0.926667,-1.500001 v 1.500001 h -1.480001 v -4.933336 h 1.480001 v 2.580001 l 0.940001,-1.406667 h 1.72 l -1.406667,1.893334 1.440001,1.866668 z"
     id="path49" /></g></svg>
