<?xml version="1.0" encoding="UTF-8" standalone="no"?>
<svg
   enable-background="new 0 0 50 50"
   height="50px"
   id="Capa_1"
   version="1.1"
   viewBox="0 0 50 50"
   width="50px"
   xml:space="preserve"
   sodipodi:docname="apple-extra.svg"
   inkscape:version="1.4.2 (ebf0e940, 2025-05-08)"
   xmlns:inkscape="http://www.inkscape.org/namespaces/inkscape"
   xmlns:sodipodi="http://sodipodi.sourceforge.net/DTD/sodipodi-0.dtd"
   xmlns="http://www.w3.org/2000/svg"
   xmlns:svg="http://www.w3.org/2000/svg">
   <g
     id="g1"><path
       d="M29.98,18.252c-1.137,0-2.031,0.275-2.824,0.52c-0.109,0.032-0.213,0.065-0.315,0.091l3.747-3.809   c0.318-0.327,0.32-0.852-0.002-1.169c-0.32-0.323-0.844-0.326-1.16-0.002l-3.604,3.672v-6.744c0.001-0.458-0.365-0.835-0.813-0.833   c-0.458,0.001-0.823,0.369-0.823,0.832l-0.002,8.303c-0.452-0.08-0.888-0.206-1.333-0.34c-0.791-0.246-1.695-0.524-2.82-0.524   c-4.324,0-7.461,2.964-7.461,7.038c0,2.127,1.026,4.863,1.518,6.177l0.14,0.367c0.127,0.353,0.321,0.935,0.52,1.513   c0.257,0.774,0.522,1.551,0.642,1.848c1.016,2.55,2.258,4.828,6.223,4.832l6.773-0.004c3.966,0.004,5.207-2.278,6.229-4.824   c0.117-0.291,0.38-1.071,0.641-1.842c0.195-0.584,0.396-1.164,0.521-1.516l0.135-0.369c0.49-1.314,1.521-4.047,1.523-6.174   C37.43,21.214,34.3,18.252,29.98,18.252z M34.377,30.879l-0.143,0.385c-0.133,0.36-0.334,0.959-0.529,1.553   c-0.252,0.736-0.505,1.476-0.615,1.761c-1.048,2.622-1.979,3.793-4.703,3.791l-6.772-0.003c-2.738,0.001-3.659-1.172-4.702-3.792   c-0.116-0.282-0.367-1.025-0.616-1.763c-0.197-0.596-0.401-1.188-0.533-1.553l-0.144-0.38c-0.418-1.129-1.41-3.767-1.41-5.586   c0-3.166,2.396-5.383,5.821-5.386c0.886,0.003,1.588,0.22,2.345,0.45c0.784,0.243,1.602,0.497,2.628,0.493   c1.024-0.003,1.84-0.249,2.632-0.49c0.745-0.23,1.452-0.444,2.342-0.444c3.426-0.004,5.819,2.212,5.819,5.382   C35.791,27.12,34.801,29.76,34.377,30.879z"
       id="path1" /></g><g
     id="g2"
     transform="matrix(0.4823566,0,0,0.4823566,17.178816,21.393495)"><path
       d="m 23.372692,16.664177 a 0.62179356,0.62179356 0 0 0 -0.105474,-0.02738 l -0.009,-0.0069 -0.08205,-0.05579 A 1.822368,1.822368 0 0 0 22.961629,16.463152 3.8863123,3.8863123 0 0 0 22.344079,16.258217 9.8898894,9.8898894 0 0 1 18.255998,14.254503 14.687431,14.687431 0 0 1 13.452713,5.0564963 15.175083,15.175083 0 0 1 13.261008,3.5137944 l -0.03462,-0.3909351 -0.01745,-0.1958585 -0.0088,-0.098051 -0.0023,-0.024423 A 0.9590749,0.9590749 0 0 0 13.161528,2.5963734 0.84999821,0.84999821 0 0 0 11.59089,2.4351814 0.9506903,0.9506903 0 0 0 11.487762,2.8156293 l -0.0086,0.089987 c -0.07245,0.00471 -0.0813,0.00549 -7.7e-5,0.00103 l -7.05e-4,0.00712 -0.01869,0.1964099 -0.03733,0.3933581 A 19.989086,19.989086 0 0 1 10.897,6.6186212 15.721762,15.721762 0 0 1 8.3686721,12.124213 10.898515,10.898515 0 0 1 4.3046681,15.495462 L 3.4895416,15.816295 C 3.0942219,15.95714 2.5479538,16.064422 2.2528775,16.191268 l -1.0232799,0.359474 -0.49758864,0.174897 c -0.084115,0.0446 -0.039833,0.06795 -0.065808,0.102564 l -0.055013,0.187102 -0.026526,0.09045 a 0.92117755,0.92117755 0 0 0 -0.00524,0.112372 0.16247402,0.16247402 0 0 0 0.00978,0.06933 l 0.098436,0.331538 a 6.3674097,6.3674097 0 0 0 0.69721644,0.469743 10.260671,10.260671 0 0 1 2.4588538,0.608973 l 0.3597044,0.13982 a 1.9784702,1.9784702 0 0 1 0.2908583,0.136397 l 0.6166654,0.318474 a 11.227617,11.227617 0 0 1 2.5916612,2.103111 15.734685,15.734685 0 0 1 3.4828395,7.275305 21.359545,21.359545 0 0 1 0.332319,2.24961 l 0.05641,0.564884 0.0071,0.07042 a 0.95813901,0.95813901 0 0 0 0.02958,0.183269 0.75622918,0.75622918 0 0 0 1.430266,0.09952 0.84825462,0.84825462 0 0 0 0.06267,-0.273076 l 0.0029,-0.03522 0.02387,-0.28123 0.09546,-1.116549 a 20.250509,20.250509 0 0 1 0.945973,-4.110466 13.423049,13.423049 0 0 1 3.137044,-5.135784 10.312799,10.312799 0 0 1 4.170722,-2.564648 c 1.063177,-0.351115 1.681125,-0.384294 1.788714,-0.496807 0.06449,-0.04586 -0.05563,-0.237179 0.07372,-0.234756 a 0.45693493,0.45693493 0 0 0 0.36214,-0.524896 0.49311435,0.49311435 0 0 0 -0.143204,-0.281859 0.5321399,0.5321399 0 0 0 -0.18841,-0.119064 z"
       id="path1-3"
       style="stroke-width:1.28205" /><path
       d="M 31.26806,6.0346994 A 0.49151178,0.49151178 0 0 0 30.986586,5.8066742 c -0.148205,-0.033026 -0.04804,-0.023 -0.08474,-0.036538 l -0.03004,-0.047116 A 0.58165262,0.58165262 0 0 0 30.792766,5.6345592 0.73845998,0.73845998 0 0 0 30.564036,5.4939441 5.7994493,5.7994493 0 0 1 29.823717,5.2362523 4.0576838,4.0576838 0 0 1 28.333528,4.0108447 5.1751045,5.1751045 0 0 1 27.9784,3.4824227 L 27.813144,3.1878592 27.611965,2.7535652 A 6.3865891,6.3865891 0 0 1 27.359773,1.930067 C 27.284338,1.6194138 27.194274,1.3866963 27.13003,0.99153051 q -0.104461,-0.54730654 -0.210884,-1.1042669 c -0.01589,-0.12464077 -0.03974,-0.11447412 -0.06154,-0.13739715 l -0.06659,-0.0585383 -0.134038,-0.11737154 -0.129974,-0.11056387 -0.06988,-0.0307692 -0.128871,-0.0546153 -0.05971,-0.0240256 -0.01503,-0.005551 c -0.0094,-0.003218 -0.0565,-2.4359e-4 -0.04382,7.0513e-4 l -0.03013,0.007115 c -0.01776,7.692e-5 -0.121051,0.0318461 -0.223167,0.0614229 a 2.2086877,2.2086877 0 0 0 -0.263378,0.19414032 0.72860103,0.72860103 0 0 0 -0.144217,0.12684589 l -0.16282,0.45256315 A 9.5978772,9.5978772 0 0 1 24.852791,2.6445911 C 24.687843,3.0203467 24.663433,3.063539 24.589164,3.2051797 L 24.375626,3.5694353 A 4.3647472,4.3647472 0 0 1 23.331461,4.7143816 1.0521773,1.0521773 0 0 1 23.186308,4.8174455 L 22.956949,4.9689324 A 4.6811568,4.6811568 0 0 1 22.019772,5.2941368 3.8505047,3.8505047 0 0 0 21.555055,5.444457 l -0.405833,0.1581535 c -0.211115,0.1197946 -0.365243,0.2672943 -0.323614,0.3309096 l -0.07821,0.215897 -0.009,0.090218 a 0.93013907,0.93013907 0 0 0 0.01026,0.2010252 l 0.06972,0.1847432 0.02821,0.072859 0.01628,0.042013 0.108448,0.068077 c 0.154397,0.095628 0.337422,0.2090893 0.557384,0.3454736 0.336704,0.074974 0.663562,0.1870253 1.072331,0.3011917 A 1.5788044,1.5788044 0 0 1 23.1035,7.7009523 l 0.20032,0.1285638 a 4.6927978,4.6927978 0 0 1 0.836499,0.8006521 5.2469505,5.2469505 0 0 1 0.386947,0.5601912 4.7296439,4.7296439 0 0 1 0.442974,0.9095116 c 0.356499,0.906293 0.451166,2.650366 0.942677,2.844301 a 0.3552813,0.3552813 0 0 0 0.326538,0.199615 c 0.18609,0 0.514704,0.09026 0.761447,-1.082664 0.218769,-1.039998 0.298718,-1.591022 0.483589,-2.1911625 0.131923,-0.315653 0.184115,-0.405409 0.236153,-0.5217938 l 0.186782,-0.3263839 a 4.3382344,4.3382344 0 0 1 0.711922,-0.8928314 6.8996649,6.8996649 0 0 1 2.2982,-1.238459 c 0.0234,-0.038974 -0.05204,-0.2390507 0.05681,-0.2293456 A 0.41424272,0.41424272 0 0 0 31.26806,6.0346994 Z"
       id="path2"
       style="stroke-width:1.28205" /></g></svg>
