<?xml version="1.0"?><!DOCTYPE svg  PUBLIC '-//W3C//DTD SVG 1.1//EN'  'http://www.w3.org/Graphics/SVG/1.1/DTD/svg11.dtd'><svg enable-background="new 0 0 50 50" height="50px" id="Capa_1" version="1.1" viewBox="0 0 50 50" width="50px" xml:space="preserve" xmlns="http://www.w3.org/2000/svg" xmlns:xlink="http://www.w3.org/1999/xlink"><g><path d="M29.98,18.252c-1.137,0-2.031,0.275-2.824,0.52c-0.109,0.032-0.213,0.065-0.315,0.091l3.747-3.809   c0.318-0.327,0.32-0.852-0.002-1.169c-0.32-0.323-0.844-0.326-1.16-0.002l-3.604,3.672v-6.744c0.001-0.458-0.365-0.835-0.813-0.833   c-0.458,0.001-0.823,0.369-0.823,0.832l-0.002,8.303c-0.452-0.08-0.888-0.206-1.333-0.34c-0.791-0.246-1.695-0.524-2.82-0.524   c-4.324,0-7.461,2.964-7.461,7.038c0,2.127,1.026,4.863,1.518,6.177l0.14,0.367c0.127,0.353,0.321,0.935,0.52,1.513   c0.257,0.774,0.522,1.551,0.642,1.848c1.016,2.55,2.258,4.828,6.223,4.832l6.773-0.004c3.966,0.004,5.207-2.278,6.229-4.824   c0.117-0.291,0.38-1.071,0.641-1.842c0.195-0.584,0.396-1.164,0.521-1.516l0.135-0.369c0.49-1.314,1.521-4.047,1.523-6.174   C37.43,21.214,34.3,18.252,29.98,18.252z M34.377,30.879l-0.143,0.385c-0.133,0.36-0.334,0.959-0.529,1.553   c-0.252,0.736-0.505,1.476-0.615,1.761c-1.048,2.622-1.979,3.793-4.703,3.791l-6.772-0.003c-2.738,0.001-3.659-1.172-4.702-3.792   c-0.116-0.282-0.367-1.025-0.616-1.763c-0.197-0.596-0.401-1.188-0.533-1.553l-0.144-0.38c-0.418-1.129-1.41-3.767-1.41-5.586   c0-3.166,2.396-5.383,5.821-5.386c0.886,0.003,1.588,0.22,2.345,0.45c0.784,0.243,1.602,0.497,2.628,0.493   c1.024-0.003,1.84-0.249,2.632-0.49c0.745-0.23,1.452-0.444,2.342-0.444c3.426-0.004,5.819,2.212,5.819,5.382   C35.791,27.12,34.801,29.76,34.377,30.879z"/></g></svg>