<?xml version="1.0" encoding="UTF-8" standalone="no"?>
<svg
   enable-background="new 0 0 50 50"
   height="50px"
   id="Capa_1"
   version="1.1"
   viewBox="0 0 50 50"
   width="50px"
   xml:space="preserve"
   sodipodi:docname="apple-devil.svg"
   inkscape:version="1.4.2 (ebf0e940, 2025-05-08)"
   xmlns:inkscape="http://www.inkscape.org/namespaces/inkscape"
   xmlns:sodipodi="http://sodipodi.sourceforge.net/DTD/sodipodi-0.dtd"
   xmlns="http://www.w3.org/2000/svg"
   xmlns:svg="http://www.w3.org/2000/svg"><defs
     id="defs1" /><sodipodi:namedview
     id="namedview1"
     pagecolor="#ffffff"
     bordercolor="#000000"
     borderopacity="0.25"
     inkscape:showpageshadow="2"
     inkscape:pageopacity="0.0"
     inkscape:pagecheckerboard="0"
     inkscape:deskcolor="#d1d1d1"
     inkscape:zoom="6.105955"
     inkscape:cx="80.085752"
     inkscape:cy="54.782585"
     inkscape:window-width="2496"
     inkscape:window-height="1348"
     inkscape:window-x="0"
     inkscape:window-y="25"
     inkscape:window-maximized="0"
     inkscape:current-layer="Capa_1" /><g
     id="g1"><path
       d="M29.98,18.252c-1.137,0-2.031,0.275-2.824,0.52c-0.109,0.032-0.213,0.065-0.315,0.091l3.747-3.809   c0.318-0.327,0.32-0.852-0.002-1.169c-0.32-0.323-0.844-0.326-1.16-0.002l-3.604,3.672v-6.744c0.001-0.458-0.365-0.835-0.813-0.833   c-0.458,0.001-0.823,0.369-0.823,0.832l-0.002,8.303c-0.452-0.08-0.888-0.206-1.333-0.34c-0.791-0.246-1.695-0.524-2.82-0.524   c-4.324,0-7.461,2.964-7.461,7.038c0,2.127,1.026,4.863,1.518,6.177l0.14,0.367c0.127,0.353,0.321,0.935,0.52,1.513   c0.257,0.774,0.522,1.551,0.642,1.848c1.016,2.55,2.258,4.828,6.223,4.832l6.773-0.004c3.966,0.004,5.207-2.278,6.229-4.824   c0.117-0.291,0.38-1.071,0.641-1.842c0.195-0.584,0.396-1.164,0.521-1.516l0.135-0.369c0.49-1.314,1.521-4.047,1.523-6.174   C37.43,21.214,34.3,18.252,29.98,18.252z M34.377,30.879l-0.143,0.385c-0.133,0.36-0.334,0.959-0.529,1.553   c-0.252,0.736-0.505,1.476-0.615,1.761c-1.048,2.622-1.979,3.793-4.703,3.791l-6.772-0.003c-2.738,0.001-3.659-1.172-4.702-3.792   c-0.116-0.282-0.367-1.025-0.616-1.763c-0.197-0.596-0.401-1.188-0.533-1.553l-0.144-0.38c-0.418-1.129-1.41-3.767-1.41-5.586   c0-3.166,2.396-5.383,5.821-5.386c0.886,0.003,1.588,0.22,2.345,0.45c0.784,0.243,1.602,0.497,2.628,0.493   c1.024-0.003,1.84-0.249,2.632-0.49c0.745-0.23,1.452-0.444,2.342-0.444c3.426-0.004,5.819,2.212,5.819,5.382   C35.791,27.12,34.801,29.76,34.377,30.879z"
       id="path1" /></g><path
     id="path2"
     d="m 5.122742,7.841098 c 0,0 -4.524878,8.863843 2.789309,17.293713 0,0 0.929771,0.743904 1.766561,-0.371894 0,0 2.200488,-3.192197 2.262451,-5.702569 0,0 0.123926,-0.86783 -0.52686,-1.177761 0,0 -5.935052,-3.471089 -5.795583,-10.041489 0,0 0.04649,-0.222121 -0.196286,-0.247968 0,0 -0.158704,-0.05769 -0.299592,0.247968"
     style="fill:#d31616;fill-opacity:1;fill-rule:nonzero;stroke:none;stroke-width:0.00115388" /><path
     id="path3"
     d="m 45.618853,7.841098 c 0,0 4.524808,8.863843 -2.78938,17.293713 0,0 -0.929793,0.743904 -1.766583,-0.371894 0,0 -2.200442,-3.192197 -2.262405,-5.702569 0,0 -0.123926,-0.86783 0.52686,-1.177761 0,0 5.935076,-3.471089 5.795572,-10.041489 0,0 -0.0465,-0.222121 0.196274,-0.247968 0,0 0.158773,-0.05769 0.299662,0.247968"
     style="fill:#d31616;fill-opacity:1;fill-rule:nonzero;stroke:none;stroke-width:0.00115388" /><g
     id="g3"
     transform="matrix(-0.01911372,0.00490853,0.0066689,0.01674821,48.048834,7.6424897)"><path
       id="path7"
       d="m 5559.37,6153.6 c 0,0 0,0 -347.25,493.8 0,0 -299.3,-747.1 -114.96,-1616.1 0,0 445.57,632.4 1118.35,914.2 l -656.14,208.1"
       style="fill:#ed1c24;fill-opacity:1;fill-rule:nonzero;stroke:none"
       transform="matrix(0.13333333,0,0,-0.13333333,0,2666.6667)" /><path
       id="path8"
       d="M 14605.3,9095.4 C 14542.9,8208.7 13388.6,5818.7 9797.95,6612.8 8401.47,6921.6 7499.47,7286.2 6418.6,6888.7 5956.46,6718.8 5304.13,6108.8 5138.14,5632.5 c 45.85,-15.7 91.69,-31.4 137.53,-47.1 8.95,-3.1 42.36,-21.1 50.84,-17.4 12.25,5.2 33.2,75.5 40.58,90 41.52,81.4 91.27,159 155.86,223.7 905.65,907 1655.65,1067 3765.65,257 1597.3,-613.1 3478.3,-853.6 4513.7,-4.7 370.2,303.5 675.8,744.7 819.6,1241.4 187.9,648.7 138.2,1365.1 -16.6,1720"
       style="fill:#ed1c24;fill-opacity:1;fill-rule:nonzero;stroke:none"
       transform="matrix(0.13333333,0,0,-0.13333333,0,2666.6667)" /></g></svg>
