<?xml version="1.0" encoding="UTF-8" standalone="no"?>
<svg
   enable-background="new 0 0 50 50"
   height="50px"
   id="Capa_1"
   version="1.1"
   viewBox="0 0 50 50"
   width="50px"
   xml:space="preserve"
   sodipodi:docname="icon.svg"
   inkscape:version="1.4.2 (ebf0e940, 2025-05-08)"
   xmlns:inkscape="http://www.inkscape.org/namespaces/inkscape"
   xmlns:sodipodi="http://sodipodi.sourceforge.net/DTD/sodipodi-0.dtd"
   xmlns="http://www.w3.org/2000/svg"
   xmlns:svg="http://www.w3.org/2000/svg"><defs
   id="defs1" /><sodipodi:namedview
   id="namedview1"
   pagecolor="#ffffff"
   bordercolor="#000000"
   borderopacity="0.25"
   inkscape:showpageshadow="2"
   inkscape:pageopacity="0.0"
   inkscape:pagecheckerboard="0"
   inkscape:deskcolor="#d1d1d1"
   inkscape:zoom="16.64"
   inkscape:cx="24.969952"
   inkscape:cy="25"
   inkscape:window-width="1792"
   inkscape:window-height="1249"
   inkscape:window-x="1774"
   inkscape:window-y="25"
   inkscape:window-maximized="0"
   inkscape:current-layer="Capa_1" />
   <g
   id="g9"
   transform="matrix(0.92372126,0,0,0.92372126,1.9195811,0.61062895)">
  
  
  <path
   d="m 16.77997,36.237717 0.48399,3.788054 z"
   id="path2"
   style="stroke-width:1.19799" />
  <polygon
   points="30.598,46.162 31.003,43.006 "
   id="polygon2"
   transform="matrix(1.1979931,0,0,1.1979931,-3.6146647,-15.275988)" />
  <path
   d="M 33.765117,34.384421 35.3872,21.732416 Z"
   id="path3"
   style="stroke-width:1.19799" />
  <polygon
   points="15.477,30.889 16.83,41.448 "
   id="polygon3"
   transform="matrix(1.1979931,0,0,1.1979931,-3.6146647,-15.275988)" />
  <path
   d="m 12.330624,13.520173 -0.04073,0.0024 c -0.468415,0 -0.846981,0.41211 -0.849377,0.930841 0.0036,0.506751 0.383358,0.926048 0.849377,0.926048 h 0.113809 l 3.280106,25.699349 c 0.06229,0.456435 0.416901,0.800259 0.836199,0.800259 l 17.258289,0.0036 c 0.424089,0.006 0.776299,-0.337834 0.836199,-0.801457 l 3.296877,-25.695755 0.134175,0.0024 c 0.473208,-0.0048 0.849377,-0.415703 0.844586,-0.929642 0.0024,-0.512741 -0.373774,-0.929643 -0.84219,-0.930841 l -0.07068,-0.0036 m -4.212147,20.860646 v 0 l -0.238401,1.860484 v 0 l -0.485187,3.782064 -15.776371,-0.0012 -0.486386,-3.788054 v 0 l -0.23241,-1.859286 v 0 l -1.620885,-12.650807 20.462921,0.0048 z m 1.860483,-14.51129 -20.933732,-0.0024 -0.57863,-4.491277 22.087399,0.0084 z"
   id="path4"
   sodipodi:nodetypes="cccscccccccccccccccccccccccccccc"
   style="stroke-width:1.19799" />
  <line
   x1="17.263958"
   x2="16.77997"
   y1="40.025768"
   y2="36.237717"
   id="line4"
   style="stroke-width:1.19799" />
  <line
   x1="16.54756"
   x2="16.77997"
   y1="34.378433"
   y2="36.237717"
   id="line5"
   style="stroke-width:1.19799" />
  <line
   x1="14.926675"
   x2="16.54756"
   y1="21.728823"
   y2="34.378433"
   id="line6"
   style="stroke-width:1.19799" />
  <line
   x1="35.390793"
   x2="33.765118"
   y1="21.733614"
   y2="34.384422"
   id="line7"
   style="stroke-width:1.19799" />
  <line
   x1="33.526714"
   x2="33.041531"
   y1="36.244907"
   y2="40.025768"
   id="line8"
   style="stroke-width:1.19799" />
  <line
   x1="33.526714"
   x2="33.765118"
   y1="36.244907"
   y2="34.384422"
   id="line9"
   style="stroke-width:1.19799" />
</g><path
   id="path2-4"
   d="m 2.79015,1.3652808 c 0,0 -4.524878,8.8638432 2.789309,17.2937132 0,0 0.929771,0.743904 1.766561,-0.371894 0,0 2.200488,-3.192197 2.262451,-5.702569 0,0 0.123926,-0.86783 -0.52686,-1.177761 0,0 -5.935052,-3.4710892 -5.795583,-10.0414892 0,0 0.04649,-0.222121 -0.196286,-0.247968 0,0 -0.158704,-0.05769 -0.299592,0.247968"
   style="fill:#d31616;fill-opacity:1;fill-rule:nonzero;stroke:none;stroke-width:0.00115388" /><path
   id="path3-9"
   d="m 47.286261,1.3652808 c 0,0 4.524808,8.8638432 -2.78938,17.2937132 0,0 -0.929793,0.743904 -1.766583,-0.371894 0,0 -2.200442,-3.192197 -2.262405,-5.702569 0,0 -0.123926,-0.86783 0.52686,-1.177761 0,0 5.935076,-3.4710892 5.795572,-10.0414892 0,0 -0.0465,-0.222121 0.196274,-0.247968 0,0 0.158773,-0.05769 0.299662,0.247968"
   style="fill:#d31616;fill-opacity:1;fill-rule:nonzero;stroke:none;stroke-width:0.00115388" /><g
   id="g3"
   transform="matrix(-0.0204334,0.00524743,0.00712934,0.01790456,48.595597,4.3778275)"><path
     id="path7"
     d="m 5559.37,6153.6 c 0,0 0,0 -347.25,493.8 0,0 -299.3,-747.1 -114.96,-1616.1 0,0 445.57,632.4 1118.35,914.2 l -656.14,208.1"
     style="fill:#ed1c24;fill-opacity:1;fill-rule:nonzero;stroke:none"
     transform="matrix(0.13333333,0,0,-0.13333333,0,2666.6667)" /><path
     id="path8"
     d="M 14605.3,9095.4 C 14542.9,8208.7 13388.6,5818.7 9797.95,6612.8 8401.47,6921.6 7499.47,7286.2 6418.6,6888.7 5956.46,6718.8 5304.13,6108.8 5138.14,5632.5 c 45.85,-15.7 91.69,-31.4 137.53,-47.1 8.95,-3.1 42.36,-21.1 50.84,-17.4 12.25,5.2 33.2,75.5 40.58,90 41.52,81.4 91.27,159 155.86,223.7 905.65,907 1655.65,1067 3765.65,257 1597.3,-613.1 3478.3,-853.6 4513.7,-4.7 370.2,303.5 675.8,744.7 819.6,1241.4 187.9,648.7 138.2,1365.1 -16.6,1720"
     style="fill:#ed1c24;fill-opacity:1;fill-rule:nonzero;stroke:none"
     transform="matrix(0.13333333,0,0,-0.13333333,0,2666.6667)" /></g></svg>
