<?xml version="1.0"?><!DOCTYPE svg  PUBLIC '-//W3C//DTD SVG 1.1//EN'  'http://www.w3.org/Graphics/SVG/1.1/DTD/svg11.dtd'><svg enable-background="new 0 0 50 50" height="50px" id="Capa_1" version="1.1" viewBox="0 0 50 50" width="50px" xml:space="preserve" xmlns="http://www.w3.org/2000/svg" xmlns:xlink="http://www.w3.org/1999/xlink"><g><path d="M33.04,21.751c-0.405-0.52-0.794-1.01-0.903-1.223c-0.228-0.445-0.209-1.31-0.193-2.007c0-0.184,0.01-0.369,0.006-0.535   c0-3.443-2.369-6.327-5.514-7.006l2.325-3.567c0.246-0.389,0.144-0.906-0.233-1.163c-0.373-0.259-0.887-0.151-1.131,0.229   l-2.845,4.371c-3.613,0.238-6.493,3.343-6.493,7.13c0,0.168,0.006,0.353,0.01,0.539c0.013,0.693,0.03,1.562-0.194,2.004   c-0.108,0.216-0.499,0.706-0.903,1.223c-1.648,2.09-4.4,5.577-4.4,9.326c-0.003,7.07,5.577,12.818,12.423,12.818   c6.86,0.002,12.437-5.742,12.437-12.81C37.432,27.33,34.686,23.843,33.04,21.751z M24.999,42.216   c-5.952-0.002-10.787-4.998-10.79-11.146c0.002-3.151,2.525-6.354,4.035-8.271c0.523-0.662,0.899-1.135,1.089-1.502   c0.408-0.826,0.394-1.883,0.366-2.816c0.005-0.175-0.002-0.341-0.004-0.496c0.004-3.027,2.384-5.483,5.31-5.482   c2.929-0.001,5.306,2.458,5.31,5.483c0.002,0.155-0.008,0.32-0.006,0.5c-0.023,0.932-0.048,1.99,0.371,2.815   c0.182,0.364,0.562,0.841,1.086,1.502c1.51,1.912,4.028,5.117,4.029,8.278C35.795,37.223,30.95,42.221,24.999,42.216z"/></g></svg>