<?xml version="1.0"?><!DOCTYPE svg  PUBLIC '-//W3C//DTD SVG 1.1//EN'  'http://www.w3.org/Graphics/SVG/1.1/DTD/svg11.dtd'><svg enable-background="new 0 0 50 50" height="50px" id="Capa_1" version="1.1" viewBox="0 0 50 50" width="50px" xml:space="preserve" xmlns="http://www.w3.org/2000/svg" xmlns:xlink="http://www.w3.org/1999/xlink"><g><path d="M20.226,21.733c0.001-2.144-1.72-3.887-3.829-3.887c-2.106-0.001-3.831,1.74-3.83,3.89   c0.002,2.141,1.717,3.881,3.833,3.884C18.506,25.62,20.222,23.876,20.226,21.733z M16.398,23.953   c-1.213-0.001-2.194-0.994-2.195-2.222c0.004-1.224,0.984-2.22,2.195-2.22c1.203-0.002,2.187,0.997,2.187,2.225   C18.583,22.958,17.601,23.958,16.398,23.953z"/><path d="M24.993,33.654c-2.106,0-3.825,1.746-3.826,3.885c0.002,2.146,1.718,3.889,3.828,3.889s3.828-1.744,3.825-3.885   C28.822,35.4,27.104,33.654,24.993,33.654z M24.993,39.761c-1.209-0.001-2.185-0.993-2.185-2.219   c-0.002-1.226,0.977-2.222,2.187-2.222s2.194,0.998,2.19,2.225C27.186,38.768,26.203,39.766,24.993,39.761z"/><path d="M24.182,29.639c-0.003-2.144-1.718-3.889-3.829-3.891s-3.83,1.746-3.83,3.893c0,2.141,1.718,3.883,3.831,3.881   C22.461,33.521,24.179,31.783,24.182,29.639z M20.353,31.859c-1.211,0.005-2.189-0.998-2.186-2.224   c-0.006-1.223,0.975-2.223,2.182-2.221c1.209,0,2.19,0.993,2.187,2.219C22.536,30.859,21.555,31.859,20.353,31.859z"/><path d="M24.999,25.623c2.115,0,3.83-1.743,3.832-3.881c0.002-2.145-1.722-3.896-3.832-3.896c-2.107-0.004-3.826,1.748-3.828,3.891   C21.167,23.88,22.886,25.623,24.999,25.623z M24.997,19.511c1.212,0,2.192,1.004,2.196,2.229c-0.002,1.219-0.987,2.218-2.194,2.217   c-1.209,0.005-2.187-0.994-2.187-2.22C22.815,20.508,23.79,19.518,24.997,19.511z"/><path d="M28.953,25.75c-2.107,0.004-3.822,1.744-3.822,3.889c0,2.139,1.712,3.885,3.826,3.891c2.107-0.002,3.826-1.743,3.83-3.889   C32.781,27.498,31.066,25.754,28.953,25.75z M28.951,31.864c-1.207,0.001-2.184-0.999-2.18-2.229c0-1.221,0.975-2.215,2.186-2.215   c1.205-0.004,2.191,0.988,2.189,2.22C31.148,30.865,30.164,31.864,28.951,31.864z"/><path d="M33.602,17.852c-2.104-0.004-3.822,1.739-3.824,3.884c-0.004,2.144,1.714,3.887,3.824,3.888   c2.115,0.003,3.83-1.739,3.832-3.881C37.434,19.598,35.713,17.852,33.602,17.852z M33.604,23.964c-1.209-0.006-2.188-1-2.188-2.225   c0.004-1.226,0.981-2.226,2.188-2.221c1.211,0,2.188,0.996,2.194,2.225C35.795,22.964,34.809,23.967,33.604,23.964z"/><path d="M24.595,16.624c0.123,0.076,0.27,0.109,0.41,0.113c0.139-0.002,0.289-0.041,0.418-0.115l2.776-1.686   c0.391-0.238,0.52-0.75,0.287-1.148c-0.234-0.389-0.734-0.518-1.125-0.287l-1.541,0.936l0.004-5.033   c-0.002-0.461-0.368-0.835-0.821-0.832c-0.449-0.005-0.817,0.37-0.814,0.832l-0.006,6.499   C24.182,16.204,24.344,16.484,24.595,16.624z"/></g></svg>